<?xml version="1.0" encoding="UTF-8"?>
<svg id="Layer_1" xmlns="http://www.w3.org/2000/svg" viewBox="0 0 589.44 347.43">
  <defs>
    <style>
      .cls-1 {
        fill: #f9f8f7;
      }

      .cls-2 {
        fill: #0a2139;
      }

      .cls-3 {
        fill: #ffc541;
      }

      .cls-4 {
        fill: #182e57;
      }
    </style>
  </defs>
  <g>
    <path class="cls-2" d="M513.93,159.47s23.08,95.68-145.09,148.77c-68.47,21.61-73.7,36.22-74.03,39.19-.17-1.77-2.06-7.72-18.53-16.91-10.91-6.1-28.23-13.61-55.7-22.28C52.41,255.18,75.51,159.47,75.51,159.47-2.21,159.47,0,74.62,0,74.62V0h589.43v74.62s2.22,84.86-75.5,84.86Z"/>
    <path class="cls-4" d="M476.92,159.47s23.08,95.68-145.09,148.77c-27.39,8.65-44.66,16.17-55.54,22.28-10.91-6.1-28.23-13.61-55.7-22.28C52.41,255.18,75.51,159.47,75.51,159.47-2.21,159.47,0,74.62,0,74.62V0h552.42v74.62s2.22,84.86-75.5,84.86Z"/>
  </g>
  <g>
    <path class="cls-3" d="M159.45,239.62c1.06-1.58,2.4-4.32,4.03-8.23,1.63-3.91,3.01-7.72,4.13-11.44-.44-.34-1.09-.65-1.93-.93-.84-.28-1.68-.41-2.52-.39-.84.02-1.46.31-1.87.87-.23.89-.87,2.65-1.9,5.28-1.03,2.64-2.1,5.29-3.21,7.97-1.11,2.68-1.91,4.53-2.41,5.55.68.51,1.6.91,2.78,1.2,1.17.29,2.14.33,2.9.11Z"/>
    <path class="cls-3" d="M169.85,236.47c1.07.2,2.09.2,3.05,0,.67-1.25,1.33-2.81,1.99-4.67.66-1.86,1.24-3.58,1.75-5.16.29-.89.53-1.61.72-2.17.69,1.58,1.55,2.97,2.57,4.19,1.02,1.21,2.11,2.06,3.26,2.54.99.4,2.14.59,3.44.57.06,0,.11-.02.17-.03,2.87-.06,5.36-.78,7.47-2.17,2.15-1.41,3.78-3.26,4.9-5.55,1.12-2.29,1.62-4.78,1.49-7.46-.18-2.4-.87-4.31-2.07-5.74s-2.64-2.35-4.32-2.78c-1.68-.42-3.35-.34-4.99.24-1.64.59-2.99,1.69-4.05,3.31-.67,1.1-1.06,2.28-1.18,3.55-.12,1.27.08,2.52.62,3.75.74,1.55,1.89,2.75,3.43,3.58s3.18,1.34,4.9,1.53c-.09.26-.34.67-.73,1.22-.4.55-.9,1.13-1.5,1.74-.6.61-1.26,1.13-1.98,1.57s-1.44.66-2.17.66h-.04c-1.19-.09-2.15-.69-2.89-1.8-.74-1.11-1.3-2.47-1.7-4.09-.4-1.62-.68-3.22-.85-4.81-.17-1.59-.29-2.91-.35-3.95,0-.08,0-.15-.02-.22,0-.08,0-.16-.02-.23-.01-.73-.1-1.4-.26-2-.16-.6-.52-1.02-1.07-1.27-.51-.18-1.24-.29-2.18-.32-.95-.03-1.71,0-2.28.11-.76,3.46-1.86,7.68-3.31,12.67-1.45,4.99-2.88,9.11-4.28,12.36.59.37,1.42.65,2.48.84ZM190.85,219.73c-.63-1.09-.99-2.31-1.1-3.67-.08-1.02.04-1.99.35-2.92.7-1.84,1.4-2.76,2.09-2.76s1.27.54,1.75,1.63c.48,1.09.75,2.33.83,3.73.08,1.29,0,2.51-.23,3.65-.23,1.14-.67,1.95-1.32,2.44-.97-.31-1.76-1.01-2.39-2.1Z"/>
    <path class="cls-3" d="M187.6,202.2c1.08,0,2-.37,2.76-1.12.76-.74,1.13-1.64,1.13-2.7s-.38-1.93-1.13-2.66c-.76-.76-1.68-1.13-2.76-1.13s-1.99.38-2.76,1.13c-.76.73-1.13,1.62-1.13,2.66s.38,1.96,1.13,2.7c.77.74,1.69,1.12,2.76,1.12Z"/>
    <path class="cls-3" d="M195.62,202.2c1.08,0,2-.37,2.76-1.12.76-.74,1.13-1.64,1.13-2.7s-.38-1.93-1.13-2.66c-.76-.76-1.68-1.13-2.76-1.13s-1.99.38-2.76,1.13c-.76.73-1.13,1.62-1.13,2.66s.38,1.96,1.13,2.7c.77.74,1.69,1.12,2.76,1.12Z"/>
    <path class="cls-3" d="M217.44,234.33c1.64,1.19,3.57,1.92,5.77,2.18,2.05.21,4.13-.01,6.25-.67,2.12-.65,3.84-1.74,5.16-3.27.77-.94,1.27-2.02,1.51-3.24s.11-2.55-.37-4c-.43-1.04-1.1-2.14-2-3.29-.72-.93-1.35-1.9-1.91-2.92-.55-1.02-.82-2.07-.79-3.17.03-1.1.56-2.24,1.6-3.44,1.04-1.2,2.8-2.45,5.28-3.76-.46-.65-1.13-1.12-2.03-1.41-.89-.29-1.71-.4-2.46-.35-.95.1-1.95.51-2.98,1.21-1.04.7-1.88,1.42-2.53,2.15-1.16,1.34-1.88,2.7-2.15,4.08-.27,1.38-.23,2.72.12,4.02s.89,2.51,1.62,3.62c.63.91,1.16,1.85,1.6,2.82.44.97.67,1.98.68,3.03.01,1.06-.33,2.18-1.04,3.37-1,1.58-2.18,2.41-3.52,2.5-1.34.09-2.61-.4-3.8-1.48-1.19-1.08-2.05-2.56-2.59-4.46-.54-1.9-.52-4.05.07-6.45s1.98-4.88,4.19-7.44c.29-.31.62-.63,1-.96.38-.33.73-.66,1.05-1,.32-.34.54-.68.66-1.04-1.55-1.03-3.04-1.36-4.47-.98-1.43.38-2.73,1.19-3.91,2.44s-2.18,2.65-2.99,4.22c-.82,1.56-1.39,3.01-1.73,4.34-.77,3.16-.51,6.03.78,8.61.98,1.94,2.29,3.51,3.93,4.71Z"/>
    <path class="cls-3" d="M243.36,229.22c1,1.06,2.16,1.78,3.49,2.16,1.13.3,2.29.43,3.46.39.18,0,.35-.03.5-.1,1.17-.13,2.32-.39,3.45-.8.61-.22,1.36-.54,2.25-.97.89-.42,1.59-.84,2.11-1.24,2.11.77,4.25.98,6.41.65,2.16-.34,4.1-1.08,5.82-2.23,1.72-1.15,2.97-2.55,3.74-4.21.67-1.6.82-3.28.47-5.02-.35-1.74-1.06-3.3-2.13-4.69-1.07-1.38-2.34-2.32-3.82-2.82-1.47-.5-3-.3-4.58.59.17.3.52.66,1.06,1.08s1.1.95,1.68,1.6c.59.65,1.05,1.48,1.38,2.49s.39,2.25.17,3.73c-.16,1.03-.51,2.08-1.05,3.16-.54,1.08-1.32,1.99-2.35,2.73-1.02.74-2.34,1.13-3.96,1.17-.07-.38.21-.89.82-1.55.57-.6,1.25-1.55,2.02-2.84,1.43-2.74,1.91-5.1,1.44-7.07-.48-1.98-1.53-3.51-3.15-4.61-1.62-1.1-3.44-1.7-5.44-1.8-2-.1-3.82.35-5.45,1.37-1.63,1.02-2.68,2.65-3.15,4.89-.35,2.24-.2,4.16.46,5.74.66,1.59,1.47,2.84,2.45,3.78.97.93,1.76,1.54,2.36,1.83-.42.73-.99,1.34-1.73,1.82-.64.42-1.29.64-1.95.7-.6-.06-1.15-.4-1.64-1.04-.53-.71-.93-1.9-1.19-3.57-.26-1.67-.33-3.92-.2-6.75.05-1.2.16-2.7.31-4.51.16-1.81.39-4.31.7-7.52-.72-.21-1.59-.37-2.63-.49s-2.08.04-3.14.47c-.47,1.07-.85,2.82-1.13,5.25-.29,2.43-.44,4.95-.47,7.54-.03,2.6.12,4.67.43,6.22.46,1.9,1.18,3.39,2.18,4.45ZM254.55,216.32c.03-.67.16-1.38.39-2.14.23-.76.61-1.38,1.13-1.85.52-.47,1.21-.61,2.07-.41,1.16.37,1.84,1.1,2.04,2.2.2,1.1.11,2.33-.28,3.68-.39,1.35-.89,2.58-1.51,3.69-.61,1.11-1.15,1.86-1.62,2.25-.72-1.17-1.29-2.34-1.7-3.51-.42-1.17-.59-2.47-.53-3.9Z"/>
    <path class="cls-3" d="M306.03,237.26c-1.08,0-2.01.37-2.77,1.12-.76.74-1.14,1.64-1.14,2.7s.38,1.94,1.14,2.68c.76.74,1.69,1.12,2.77,1.12s1.99-.37,2.75-1.12c.76-.74,1.14-1.64,1.14-2.68s-.38-1.96-1.14-2.7c-.76-.74-1.68-1.12-2.75-1.12Z"/>
    <path class="cls-3" d="M292.35,228.99c1.76,1.1,3.75,1.9,5.96,2.41,2.21.5,4.48.75,6.8.73,2.32-.04,4.52-.31,6.59-.81,2.07-.5,3.83-1.17,5.28-2.01,1.25-.74,2.32-1.58,3.19-2.52.85,1.62,2.04,2.85,3.59,3.7,1.49.82,3.39,1.23,5.7,1.27.03,0,.05,0,.08,0,.02,0,.04,0,.05,0,.05,0,.09,0,.14,0,.09,0,.18,0,.26-.03,1.52-.07,2.91-.39,4.15-1,1.36-.67,2.56-1.54,3.59-2.59,1.03-1.06,1.9-2.16,2.62-3.31.12.43.26,1.08.43,1.96.27,1.47.62,2.87,1.04,4.19.56,1.4,1.41,2.23,2.55,2.51,1.14.28,2.26-.19,3.36-1.42.34-.43.66-.87.96-1.33.38-.57.76-1.07,1.13-1.49.05.04.1.08.14.14.7.74,1.47,1.34,2.31,1.79.83.45,2.1.69,3.8.71,2.06-.03,3.63-.48,4.72-1.37,1.08-.89,1.79-2.01,2.11-3.37.33-1.36.38-2.76.16-4.21s-.61-2.75-1.16-3.9-1.18-1.97-1.87-2.46c-1.43-.86-2.87-.94-4.3-.24-.07.16.1.72.51,1.68.47,1.11.93,2.45,1.37,4.01.44,1.57.53,3.03.25,4.4-.25.9-.63,1.6-1.13,2.1-.51.5-1.05.65-1.61.43s-1.05-.96-1.44-2.22c-.4-1.55-.65-3.18-.72-4.87-.07-1.62-.29-3.23-.66-4.83-.04-.14-.07-.28-.1-.41-.09-.37-.18-.63-.25-.8-.08-.17-.21-.29-.38-.35-.18-.07-.47-.13-.87-.2-.05-.01-.1-.02-.16-.02l-2.41-.43c-.22-.04-.41-.08-.57-.12-.31-.08-.5-.08-.57-.02-.07.07-.08.27-.06.63,0,.12,0,.25.02.41.05,1.11.03,2.43-.08,3.95-.1,1.53-.44,3.31-1.02,5.34l-2.33-9.57c-.07-.23-.11-.44-.14-.61-.07-.3-.13-.52-.2-.67-.07-.14-.19-.25-.38-.32-.19-.07-.49-.15-.89-.24-.04-.01-.09-.02-.14-.02-.82-.22-1.71-.31-2.66-.27-.38.03-.63.16-.76.39s-.23.54-.29.9c-.04.21-.09.43-.16.67-.21.78-.42,1.65-.63,2.6-.34,1.64-.78,3.32-1.33,5.02-.55,1.7-1.33,3.15-2.34,4.33-.99,1.16-2.31,1.8-3.97,1.92-.95-.05-1.85-.45-2.69-1.2-.87-.78-1.52-1.89-1.94-3.33-.6-2.3-1-4.92-1.19-7.87-.22-1.94-.81-3.11-1.76-3.5-.74-.25-1.52-.37-2.33-.38-.81,0-1.6.16-2.39.5-.01.4,0,.93.06,1.58.08.85.11,1.82.09,2.92-.02,1.1-.2,2.23-.55,3.4-.35,1.17-.98,2.3-1.89,3.38-1.34,1.5-3,2.58-4.98,3.24-1.98.66-4.22.95-6.72.87-3.46-.13-5.94-.75-7.45-1.87-1.51-1.12-2.39-2.49-2.62-4.12-.22-1.36-.2-2.74.08-4.15.27-1.41.59-2.69.94-3.85.4-1.3.61-2.28.61-2.92-.68-.42-1.49-.73-2.43-.93-.94-.2-1.98-.17-3.11.11-.03.01-.2.35-.52,1.01-.32.66-.66,1.54-1.01,2.63s-.59,2.32-.72,3.66c-.2,2.48.19,4.59,1.15,6.34.97,1.75,2.33,3.17,4.09,4.28Z"/>
    <path class="cls-3" d="M345.65,209.94c.97,0,1.79-.35,2.47-1.05.68-.7,1.03-1.54,1.03-2.53s-.34-1.84-1.03-2.53-1.51-1.05-2.47-1.05-1.79.35-2.48,1.05-1.03,1.54-1.03,2.53.34,1.84,1.03,2.53c.68.7,1.51,1.05,2.48,1.05Z"/>
    <path class="cls-3" d="M349.39,206.38c0,.99.34,1.84,1.02,2.53.68.7,1.5,1.05,2.47,1.05s1.79-.35,2.47-1.05,1.03-1.54,1.03-2.53-.34-1.84-1.03-2.53-1.51-1.05-2.47-1.05-1.79.35-2.47,1.05c-.68.7-1.02,1.54-1.02,2.53Z"/>
    <path class="cls-3" d="M349.27,203.5c.97,0,1.79-.35,2.47-1.05.68-.7,1.03-1.54,1.03-2.53s-.34-1.84-1.03-2.53c-.68-.7-1.51-1.05-2.47-1.05s-1.79.35-2.47,1.05c-.68.7-1.02,1.54-1.02,2.53s.34,1.84,1.02,2.53c.68.7,1.5,1.05,2.47,1.05Z"/>
    <path class="cls-3" d="M380.87,231.46c1.88.38,3.75.3,5.62-.23,1.87-.53,3.38-1.56,4.55-3.06,1.17-1.51,1.63-3.53,1.4-6.06-.42-3.18-1.71-6.32-3.87-9.41-.63-.86-1.35-1.42-2.18-1.66-.83-.25-1.66-.29-2.48-.13-.83.16-1.54.43-2.14.79l.98,1.98c-1.12.43-2.26,1.14-3.42,2.13-1.16.99-2.17,2.19-3.03,3.59-.86,1.4-1.39,2.93-1.58,4.59-.16,2.09.36,3.76,1.56,5.02,1.2,1.26,2.74,2.08,4.62,2.46ZM380.99,222.62c.39-1.04.95-2.08,1.66-3.12s1.37-1.8,1.96-2.28c.48.55.92,1.5,1.32,2.87.4,1.36.62,2.79.67,4.28.05,1.49-.21,2.69-.78,3.61s-1.6,1.22-3.09.89c-1.16-.35-1.86-1.15-2.09-2.39-.23-1.24-.12-2.52.35-3.85Z"/>
    <path class="cls-3" d="M397.24,213.52c.97,0,1.79-.35,2.47-1.05.68-.7,1.03-1.54,1.03-2.53s-.34-1.84-1.03-2.53c-.68-.7-1.51-1.05-2.47-1.05s-1.79.35-2.48,1.05c-.68.7-1.03,1.54-1.03,2.53s.34,1.84,1.03,2.53c.68.7,1.51,1.05,2.48,1.05Z"/>
    <path class="cls-3" d="M400.97,209.96c0,.99.34,1.84,1.02,2.53.68.7,1.5,1.05,2.47,1.05s1.79-.35,2.47-1.05c.68-.7,1.03-1.54,1.03-2.53s-.34-1.84-1.03-2.53c-.68-.7-1.51-1.05-2.47-1.05s-1.79.35-2.47,1.05c-.68.7-1.02,1.54-1.02,2.53Z"/>
    <path class="cls-3" d="M400.86,207.08c.97,0,1.79-.35,2.47-1.05.68-.7,1.03-1.54,1.03-2.53s-.34-1.84-1.03-2.53c-.68-.7-1.51-1.05-2.47-1.05s-1.79.35-2.47,1.05c-.68.7-1.02,1.54-1.02,2.53s.34,1.84,1.02,2.53c.68.7,1.5,1.05,2.47,1.05Z"/>
    <path class="cls-3" d="M410.42,220c.14.4.31.97.5,1.7.19.73.35,1.52.47,2.37.12.85.16,1.66.1,2.44-.06.78-.27,1.42-.64,1.93-.32.45-.82.69-1.48.74-1.11-.1-2-.56-2.64-1.41-.67-.89-1.12-1.95-1.35-3.2s-.27-2.44-.13-3.57c.08-.37.14-.71.2-1.04-.43-.34-1.07-.65-1.92-.93s-1.69-.41-2.53-.39c-.84.02-1.46.31-1.87.87-.16,1.7-.82,4.2-1.99,7.52-1.17,3.32-3.52,7.76-7.05,13.31l.39.31c.05.03.12.06.22.11s.18.09.26.14c.09.05.15.07.19.09,2.05.82,3.53.86,4.44.12.64-.52,1.75-2.03,3.34-4.52,1.58-2.49,2.83-4.92,3.75-7.3.99.72,2.09,1.3,3.3,1.76.86.33,1.71.53,2.53.63.13.04.27.07.41.07h.57l.04.02c.1,0,.2-.01.29-.04,1.59-.04,2.87-.34,3.84-.92,1.03-.63,1.78-1.44,2.24-2.45s.71-2.1.73-3.28c.03-1.18-.11-2.34-.41-3.48s-.69-2.16-1.18-3.04c-.49-.89-1.02-1.54-1.59-1.96-1.44-.93-2.87-1.06-4.3-.41-.07.14.1.7.51,1.68.23.61.5,1.32.78,2.11Z"/>
    <path class="cls-3" d="M409.18,240.45c.76-.74,1.14-1.63,1.14-2.69s-.38-1.94-1.14-2.68c-.76-.74-1.69-1.12-2.77-1.12s-1.99.37-2.75,1.12c-.76.74-1.14,1.64-1.14,2.68s.38,1.95,1.14,2.69c.76.74,1.68,1.11,2.75,1.11s2.01-.37,2.77-1.11Z"/>
    <path class="cls-3" d="M411.84,234.57c-.76.74-1.14,1.64-1.14,2.7s.38,1.94,1.14,2.68c.76.74,1.68,1.12,2.75,1.12s2.01-.37,2.77-1.12c.76-.74,1.14-1.64,1.14-2.68s-.38-1.96-1.14-2.7-1.69-1.12-2.77-1.12-1.99.37-2.75,1.12Z"/>
    <path class="cls-3" d="M425.12,231c1.14.5,2.51.75,4.1.75-.18.72-.45,1.42-.79,2.09-.35.68-.71,1.33-1.09,1.96-.2.33-.38.64-.55.94-.33.55-.66,1.09-1,1.62-.68.98-1.26,2.04-1.74,3.19l1.12.61c.17.05.38.1.65.15.26.05.51.08.74.11.05.01.1.03.14.04.57.09,1.08.14,1.51.15.43,0,.95-.05,1.55-.17.31-.2.97-1.06,1.97-2.58,1-1.53,2.04-3.42,3.12-5.68,1.08-2.26,1.91-4.61,2.48-7.04.57-2.43.6-4.66.07-6.68-.53-2.02-1.91-3.55-4.14-4.58-2.7-1.1-5.05-1.37-7.06-.82-2.01.55-3.56,1.6-4.66,3.16-1.1,1.56-1.61,3.31-1.55,5.26.07,1.95.82,3.77,2.27,5.47.77.87,1.73,1.56,2.87,2.06ZM426.42,220.07c.33-1.03.8-1.71,1.43-2.05.93-.4,1.71-.27,2.34.4.63.67,1.09,1.63,1.37,2.87.28,1.24.35,2.51.2,3.82-.15,1.3-.55,2.39-1.2,3.25-1.43-.16-2.5-.7-3.21-1.64-.7-.94-1.11-2.02-1.23-3.25-.12-1.23-.01-2.35.31-3.38Z"/>
  </g>
  <g>
    <path class="cls-1" d="M74.94,135.71c2.04,2.17,4.41,3.64,7.13,4.41,2.32.61,4.67.88,7.07.8.37,0,.71-.07,1.02-.2,2.38-.27,4.73-.8,7.05-1.63,1.25-.45,2.78-1.11,4.59-1.98,1.81-.86,3.25-1.71,4.31-2.53,4.31,1.57,8.67,2.01,13.08,1.32,4.4-.69,8.36-2.21,11.88-4.55,3.51-2.34,6.05-5.2,7.63-8.58,1.36-3.27,1.68-6.69.96-10.24-.72-3.55-2.17-6.74-4.35-9.56-2.18-2.82-4.78-4.74-7.79-5.75-3.01-1.01-6.12-.61-9.34,1.2.35.61,1.06,1.34,2.16,2.2s2.24,1.94,3.43,3.27c1.2,1.33,2.14,3.03,2.81,5.09s.79,4.6.34,7.61c-.32,2.1-1.03,4.25-2.14,6.45-1.1,2.2-2.7,4.05-4.79,5.57-2.09,1.52-4.78,2.32-8.08,2.4-.13-.77.43-1.82,1.68-3.15,1.17-1.22,2.54-3.15,4.11-5.79,2.93-5.59,3.91-10.4,2.93-14.43-.97-4.03-3.11-7.17-6.43-9.4-3.31-2.24-7.01-3.46-11.1-3.67-4.09-.21-7.79.72-11.12,2.79-3.33,2.08-5.47,5.4-6.43,9.98-.72,4.58-.41,8.48.94,11.72,1.34,3.23,3.01,5.8,4.99,7.71,1.98,1.9,3.59,3.15,4.81,3.73-.85,1.49-2.03,2.73-3.53,3.71-1.3.85-2.63,1.31-3.98,1.43-1.23-.12-2.35-.81-3.34-2.13-1.09-1.45-1.9-3.88-2.44-7.29-.53-3.41-.67-8-.4-13.77.11-2.45.32-5.52.64-9.2.32-3.69.8-8.8,1.44-15.35-1.46-.43-3.25-.76-5.37-1s-4.25.08-6.41.96c-.96,2.18-1.73,5.76-2.32,10.72-.59,4.96-.9,10.09-.96,15.39-.05,5.3.24,9.53.88,12.7.93,3.89,2.42,6.91,4.45,9.08ZM97.76,109.38c.05-1.36.32-2.81.8-4.37.48-1.56,1.25-2.81,2.32-3.77,1.06-.96,2.47-1.24,4.23-.84,2.37.75,3.76,2.24,4.17,4.49.41,2.25.22,4.75-.58,7.51-.8,2.75-1.82,5.26-3.07,7.53-1.25,2.26-2.36,3.79-3.31,4.59-1.46-2.4-2.62-4.78-3.47-7.17-.85-2.38-1.21-5.04-1.08-7.96Z"/>
    <path class="cls-1" d="M156.14,124.65c2.28.44,4.88.51,7.8.22,2.93-.27,5.65-.82,8.16-1.68,2.52-.85,5.08-1.84,7.69-2.95.11-.05.21-.11.32-.16,1.2,4.07,2.13,8.09,2.79,12.06.43,2.26.9,4.56,1.44,6.91.24.72,1,1.2,2.28,1.46,1.28.25,2.71.38,4.31.38h5.35s0-.01,0-.02c3.37-.05,6.09-.67,8.11-1.9,2.1-1.28,3.63-2.94,4.57-4.99s1.44-4.28,1.5-6.69c.05-2.41-.23-4.78-.84-7.11s-1.42-4.4-2.42-6.21c-1-1.81-2.08-3.14-3.25-3.99-2.93-1.89-5.86-2.17-8.78-.84-.13.29.21,1.44,1.04,3.43.48,1.25,1.01,2.69,1.6,4.31.29.83.63,1.98,1.02,3.47.39,1.49.7,3.1.96,4.83.25,1.73.32,3.39.2,4.97-.12,1.58-.55,2.89-1.3,3.93-.71.99-1.83,1.49-3.34,1.54-.06-.35-.11-.7-.17-1.06-.64-4.1-1.46-8.46-2.46-13.1-1-4.63-2.35-8.95-4.05-12.96-1.7-4.01-3.91-7.1-6.63-9.28-3.49-2.4-7.4-3.65-11.74-3.75-5.94-.08-10.73,1.48-14.37,4.67s-5.76,7.71-6.35,13.53c-.29,3.46.16,6.04,1.36,7.74,1.2,1.7,2.93,2.78,5.21,3.21ZM163.74,114.97c.13-2.24.49-4.52,1.06-6.87.57-2.34,1.29-4.25,2.16-5.73.86-1.48,1.83-2.04,2.89-1.7.56.29,1.11.81,1.66,1.56.55.75,1.03,1.49,1.46,2.24.16.32.32.6.48.84.35.53.82,1.38,1.42,2.56.6,1.17,1.18,2.37,1.76,3.59.57,1.22.95,2.18,1.14,2.87-.45.37-1.63,1-3.53,1.88s-3.87,1.72-5.89,2.52c-2.02.8-3.41,1.25-4.15,1.36-.43-1.17-.57-2.87-.44-5.11Z"/>
    <path class="cls-1" d="M200.61,102.84c2.18,0,4.05-.76,5.61-2.28,1.56-1.52,2.34-3.34,2.34-5.47s-.78-3.99-2.34-5.51-3.43-2.28-5.61-2.28-4.09.76-5.65,2.28c-1.56,1.52-2.34,3.35-2.34,5.51s.78,3.95,2.34,5.47c1.56,1.52,3.44,2.28,5.65,2.28Z"/>
    <path class="cls-1" d="M217.49,140.01c1.78.45,3.56.75,5.33.88s3.88-.16,6.33-.88c.05-.96.15-2.29.28-3.99.27-4.05.58-9.06.94-15.05.36-5.99.61-11.6.76-16.85.15-5.24.03-8.77-.34-10.58-1.49-.61-3.23-1.04-5.21-1.28s-4.07.04-6.25.84c-.35.8-.69,3.42-1.04,7.86-.35,4.45-.65,9.52-.9,15.21-.25,5.7-.41,10.82-.46,15.37-.05,4.55.07,7.35.36,8.38.05.03.12.05.2.08Z"/>
    <path class="cls-1" d="M246.87,139.35c2.33,1.03,5.12,1.54,8.36,1.54-.37,1.46-.91,2.89-1.62,4.27-.71,1.38-1.44,2.71-2.22,3.99-.4.66-.77,1.3-1.12,1.92-.67,1.12-1.34,2.22-2.04,3.31-1.38,2-2.57,4.16-3.55,6.51l2.28,1.24c.35.11.78.21,1.32.3.53.09,1.04.17,1.52.22.11.03.2.05.28.08,1.17.19,2.2.29,3.07.3.88.01,1.93-.1,3.15-.34.8-.53,2.49-2.86,5.07-6.99,2.58-4.13,5.07-9.08,7.47-14.85.57.03,1.17.04,1.76.05.1.01.21.03.32.03h.5c.07,0,.14,0,.22,0h0s2.27-.04,2.27-.04c4.42.16,9.54-.68,15.37-2.52,4.66-1.57,8.66-3.67,12-6.29,3.34-2.62,5.69-5.48,7.05-8.56,1.86-4.63,2.16-8.52.9-11.68-1.26-3.15-3.54-5.6-6.83-7.35-3.29-1.74-7.05-2.85-11.3-3.31-4.25-.47-8.43-.33-12.56.42-2.53.51-4.05,1.22-4.55,2.14-.51.92-.35,1.76.48,2.52.82.76,1.96,1.15,3.39,1.18,1.73-.05,3.66-.28,5.79-.68.05,0,.09-.01.12-.04,3.49-.56,6.41-.37,8.78.56,2.37.93,3.93,2.57,4.67,4.91.74,2.34.44,5.35-.92,9.02-1.22,2.98-3.24,5.55-6.05,7.71-2.81,2.16-5.94,3.81-9.4,4.97-3.35,1.12-6.56,1.7-9.63,1.76-.18,0-.37,0-.55-.02,1.17-3.75,1.84-7.41,2-10.96.16-3.55-.46-6.75-1.86-9.58-1.4-2.83-3.85-5.04-7.37-6.61-5.51-2.24-10.31-2.79-14.41-1.68-4.1,1.12-7.27,3.27-9.5,6.45-2.24,3.18-3.29,6.76-3.15,10.74.13,3.98,1.68,7.7,4.63,11.16,1.57,1.78,3.52,3.19,5.85,4.21ZM249.53,117.05c.67-2.1,1.64-3.5,2.91-4.19,1.89-.82,3.48-.55,4.77.82,1.29,1.37,2.22,3.32,2.79,5.85.57,2.53.71,5.12.4,7.79-.31,2.66-1.12,4.87-2.46,6.63-2.93-.32-5.11-1.44-6.55-3.35-1.44-1.92-2.28-4.12-2.51-6.63-.24-2.5-.03-4.8.64-6.91Z"/>
    <path class="cls-1" d="M294.72,152.74c0-2.16-.78-3.99-2.34-5.51-1.56-1.52-3.43-2.28-5.61-2.28s-4.09.76-5.65,2.28c-1.56,1.52-2.34,3.35-2.34,5.51s.78,3.95,2.34,5.47c1.56,1.52,3.44,2.28,5.65,2.28s4.05-.76,5.61-2.28c1.56-1.52,2.34-3.34,2.34-5.47Z"/>
    <path class="cls-1" d="M337.11,162.1c3.35,2.43,7.28,3.92,11.78,4.45,4.18.43,8.43-.03,12.76-1.36,4.32-1.33,7.83-3.55,10.52-6.67,1.57-1.92,2.6-4.12,3.07-6.61s.23-5.21-.76-8.16c-.88-2.13-2.24-4.36-4.07-6.71-1.46-1.89-2.76-3.87-3.89-5.95-1.13-2.08-1.67-4.23-1.62-6.47.05-2.24,1.14-4.58,3.27-7.03,2.13-2.45,5.72-5,10.78-7.67-.93-1.33-2.31-2.29-4.13-2.87-1.82-.59-3.49-.82-5.01-.72-1.94.21-3.97,1.04-6.09,2.48-2.12,1.44-3.84,2.9-5.17,4.39-2.37,2.74-3.83,5.52-4.39,8.32-.56,2.81-.48,5.54.24,8.21.72,2.66,1.82,5.12,3.31,7.39,1.28,1.86,2.37,3.78,3.27,5.75.9,1.97,1.37,4.03,1.4,6.19.03,2.16-.68,4.44-2.12,6.87-2.05,3.22-4.45,4.92-7.19,5.11-2.74.19-5.32-.82-7.74-3.01-2.42-2.2-4.19-5.23-5.29-9.1-1.1-3.87-1.06-8.26.14-13.15s4.05-9.95,8.54-15.17c.59-.64,1.26-1.29,2.04-1.96.77-.66,1.48-1.34,2.14-2.04.65-.69,1.1-1.4,1.34-2.12-3.17-2.1-6.21-2.77-9.12-2-2.91.77-5.58,2.43-7.99,4.97s-4.44,5.41-6.11,8.6c-1.66,3.19-2.84,6.15-3.53,8.86-1.57,6.44-1.04,12.3,1.6,17.57,2,3.96,4.67,7.17,8.02,9.6Z"/>
    <path class="cls-1" d="M393.05,125.84c2.28.44,4.88.51,7.8.22,2.93-.27,5.65-.82,8.16-1.68,2.52-.85,5.08-1.84,7.69-2.95.11-.05.21-.11.32-.16,1.2,4.07,2.13,8.09,2.79,12.06.43,2.26.9,4.56,1.44,6.91.24.72,1,1.2,2.28,1.46,1.28.25,2.71.38,4.31.38h5.35s0-.03,0-.05c5.52-.24,12.02-2.87,16.12-5.57,4.38-2.87,7.71-6.65,10-11.32,2.29-4.67,3.3-9.75,3.03-15.23-.37-4.9-1.78-8.8-4.23-11.72-2.45-2.91-5.39-4.8-8.82-5.67-3.43-.86-6.83-.7-10.18.5-3.35,1.2-6.11,3.45-8.26,6.75-1.36,2.24-2.16,4.65-2.42,7.25-.25,2.6.17,5.14,1.26,7.65,1.52,3.17,3.85,5.6,7.01,7.31s6.49,2.74,10,3.11c-.19.53-.69,1.36-1.5,2.5-.81,1.13-1.83,2.32-3.05,3.55-1.22,1.24-2.57,2.3-4.03,3.19-1.38.84-4.45,2.46-5.86,2.5-.06-.35-.11-.7-.17-1.06-.64-4.1-1.46-8.46-2.46-13.1-1-4.63-2.35-8.95-4.05-12.96-1.7-4.01-3.91-7.1-6.63-9.28-3.49-2.4-7.4-3.65-11.74-3.75-5.94-.08-10.73,1.48-14.37,4.67s-5.76,7.71-6.35,13.53c-.29,3.46.16,6.04,1.36,7.74,1.2,1.7,2.93,2.78,5.21,3.21ZM442.29,116.35c-1.28-2.22-2.02-4.72-2.24-7.49-.16-2.08.08-4.06.72-5.95,1.44-3.75,2.86-5.63,4.27-5.63s2.6,1.11,3.57,3.33c.97,2.22,1.54,4.76,1.7,7.61.16,2.64,0,5.12-.46,7.45-.47,2.33-1.36,3.99-2.69,4.97-1.97-.64-3.59-2.07-4.87-4.29ZM400.65,116.16c.13-2.24.49-4.52,1.06-6.87.57-2.34,1.29-4.25,2.16-5.73.86-1.48,1.83-2.04,2.89-1.7.56.29,1.11.81,1.66,1.56.55.75,1.03,1.49,1.46,2.24.16.32.32.6.48.84.35.53.82,1.38,1.42,2.56.6,1.17,1.18,2.37,1.76,3.59.57,1.22.95,2.18,1.14,2.87-.45.37-1.63,1-3.53,1.88s-3.87,1.72-5.89,2.52c-2.02.8-3.41,1.25-4.15,1.36-.43-1.17-.57-2.87-.44-5.11Z"/>
    <path class="cls-1" d="M445.21,82.48c2.18,0,4.05-.76,5.61-2.28,1.56-1.52,2.34-3.34,2.34-5.47s-.78-3.99-2.34-5.51c-1.56-1.52-3.43-2.28-5.61-2.28s-4.09.76-5.65,2.28c-1.56,1.52-2.34,3.35-2.34,5.51s.78,3.95,2.34,5.47c1.56,1.52,3.44,2.28,5.65,2.28Z"/>
    <path class="cls-1" d="M447.92,159.05c.11.05.25.13.44.22.19.09.37.19.54.28.17.09.3.15.38.18,4.18,1.68,7.2,1.76,9.06.24,1.3-1.06,3.57-4.14,6.81-9.22,3.23-5.08,5.78-10.05,7.65-14.89,2.02,1.46,4.27,2.66,6.73,3.59,1.72.65,3.39,1.06,5.04,1.27.3.12.62.19.97.2h1.48c3.03,0,6.09-.42,9.16-1.26,3.07-.84,6.03-2.16,8.88-3.97,2.42-1.62,4.89-3.71,7.41-6.25,2.52-2.54,4.66-5.15,6.45-7.83,1.78-2.68,2.79-5.01,3.03-7.01-2.77-2.37-6.28-2.79-10.54-1.28-1.57,3.97-3.65,6.55-6.25,7.77s-5.06,1.08-7.41-.38c-2.34-1.46-3.91-4.21-4.71-8.22-.37-2.61-.18-4.94.58-7.01.76-2.06,1.75-3.79,2.97-5.17,1.28-1.46,2.49-2.6,3.63-3.41,1.14-.81,2.25-1.51,3.31-2.1,1.49-.75,2.98-1.76,4.47-3.03-1.57-2.18-3.83-3.21-6.79-3.07-2.95.13-5.9,1.12-8.82,2.95-4.13,2.69-6.97,5.87-8.54,9.54-1.57,3.67-1.94,7.37-1.1,11.08.84,3.71,2.78,6.97,5.83,9.78,3.05,2.81,7.11,4.69,12.2,5.65-1.14,2.13-2.71,3.95-4.71,5.45-2,1.5-4.57,2.32-7.71,2.46l-1.7.02c-2.37-.16-4.24-1.12-5.59-2.9-1.37-1.81-2.29-3.99-2.75-6.53-.47-2.54-.55-4.97-.26-7.29.16-.75.29-1.45.4-2.12-.88-.69-2.18-1.32-3.91-1.9-1.73-.57-3.45-.84-5.17-.8s-2.99.63-3.81,1.78c-.32,3.46-1.67,8.58-4.05,15.35-2.38,6.77-7.18,15.83-14.39,27.17l.8.64Z"/>
    <path class="cls-1" d="M486.13,82.48c2.18,0,4.05-.76,5.61-2.28,1.56-1.52,2.34-3.34,2.34-5.47s-.78-3.99-2.34-5.51c-1.56-1.52-3.43-2.28-5.61-2.28s-4.09.76-5.65,2.28c-1.56,1.52-2.34,3.35-2.34,5.51s.78,3.95,2.34,5.47c1.56,1.52,3.44,2.28,5.65,2.28Z"/>
  </g>
</svg>