<svg id="Layer_1" data-name="Layer 1" xmlns="http://www.w3.org/2000/svg" viewBox="0 0 320.77 412.19"><path d="M156.7,200.87c5.91,9.34,11.12,19,17.77,27.54a59.83,59.83,0,0,0,16.91,14.79c11.78,6.76,23,3.4,33.18-4.73,11.34-9.06,18.87-21,25.81-33.44.86-1.55,1.83-3,3.95-6.55,1.75,2.7,2.67,4.88,4.24,6.4,8.07,7.83,18.57,11,28.79,14.75,16.81,6.13,33.55,12.57,47.55,24.08A33.64,33.64,0,0,1,344.36,256c8.69,20.53,14.51,41.91,18.59,63.87,3.15,17,3.6,33.95,3.58,51.09,0,9.77-5.12,15.57-13.2,18.28-16,5.38-32.2,10.26-48.58,14.27-13.81,3.37-28,5.24-42,7.71a38.83,38.83,0,0,1-6.47.48c-29,0-58.06,1.28-86.95-.36-20.59-1.17-41.15-5.3-61.34-9.84-17.52-3.95-34.47-10.39-51.71-15.62-7.34-2.23-10.65-8.1-10.52-14.63.32-15.24,1.44-30.5,3.09-45.65,1.2-11,3.5-22,5.78-32.9,3.08-14.78,7.8-29.05,15.29-42.24,5.78-10.18,15.34-15.87,25.85-19.75,16.56-6.11,33.58-11.11,48.69-20.57C148.88,207.37,152.82,203.84,156.7,200.87Z" transform="translate(-45.76 0.01)"/><path d="M191.8,9.79c3.44-2.38,6.7-5.09,10.37-7,2.75-1.46,6-2,9.11-2.75.46-.11,1.56,1.1,1.84,1.88,3.43,9.83,10.87,15,20.41,17.85,18.18,5.43,34,14.26,41.75,32.65,6.2,14.66,5.16,29.95,1.62,45.15-.53,2.26-1.31,4.47-1.69,6.75a3.85,3.85,0,0,0,.7,3c3.37,3.21,3.21,7,2.43,11.1-1.46,7.6-2.29,15.11-7.13,22-3,4.3-2.72,10.82-4.73,16-8.26,21.37-20.66,39.57-41.69,50.27-18.55,9.45-35.77,6-52.2-9.61-15.6-14.84-25.53-32.75-29.3-54a6.37,6.37,0,0,0-1-2.72c-5.8-7.31-6.5-16.16-7.42-24.88-.31-2.87-.36-5.9,3.07-7.76,1.07-.58,1.65-3.1,1.52-4.65-.53-6.29-1.29-12.56-2.19-18.81-4.33-29.89,8.7-51.17,33-66.91,5-3.22,9.81-6.64,14.87-9.69.85-.51,2.87,0,3.79.77,1.43,1.14,2.38,2.88,3.53,4.37C192.24,11.78,192,10.79,191.8,9.79Z" transform="translate(-45.76 0.01)"/></svg>