<svg id="Layer_1" data-name="Layer 1" xmlns="http://www.w3.org/2000/svg" viewBox="0 0 636 636"><defs><style>.cls-1{fill:#fff;}</style></defs><path class="cls-1" d="M78.39-12h634V624h-634ZM653,467.26c-9.83-6.77-15.7-12.8-22.83-15.43-60.74-22.45-80-66.15-73.27-128.92,4.73-44.38,3.4-89.84.46-134.53C551.18,94.66,481.79,17.66,402.47,12.79,325.7,8.07,251.75,76,238.65,171.34c-7.14,51.94-7.32,105.85-2.64,158.15,5.2,58.17-15.2,95.8-67.34,118.6-9.79,4.29-18.53,11-28.41,17C234.75,546,513.83,560,653,467.26ZM78,597.67H714C701.47,556,690.78,520.56,679.49,483c-194.33,92.14-377.84,90.88-570.17-.6C98.46,522.41,89,557.25,78,597.67Z" transform="translate(-78 12)"/><path class="cls-1" d="M653,467.26C513.83,560,234.75,546,140.26,465.06c9.88-6,18.62-12.68,28.41-17,52.14-22.8,72.54-60.43,67.34-118.6-4.68-52.3-4.5-106.21,2.64-158.15C251.75,76,325.7,8.07,402.47,12.79c79.32,4.87,148.71,81.87,154.87,175.59,2.94,44.69,4.27,90.15-.46,134.53-6.69,62.77,12.53,106.47,73.27,128.92C637.28,454.46,643.15,460.49,653,467.26ZM392.45,177.93c-63.37.51-123,36.54-123,74.28.13,88,64.13,174.41,128.08,172.85,62.05-1.52,123.6-87.84,123.13-172.69C520.49,214.39,456.79,177.42,392.45,177.93Zm126.18,15.94c-33.4-41.9-76.31-64.4-131.21-62.19-52.56,2.12-97.24,27.4-115.43,69.43C354.93,145.59,435.24,145.71,518.63,193.87Z" transform="translate(-78 12)"/><path class="cls-1" d="M78,597.67c11-40.42,20.46-75.26,31.32-115.23,192.33,91.48,375.84,92.74,570.17.6,11.29,37.52,22,73,34.51,114.63Z" transform="translate(-78 12)"/><path class="cls-1" d="M392.45,177.93c64.34-.51,128,36.46,128.25,74.44.47,84.85-61.08,171.17-123.13,172.69-63.95,1.56-127.95-84.81-128.08-172.85C269.44,214.47,329.08,178.44,392.45,177.93Z" transform="translate(-78 12)"/><path class="cls-1" d="M518.63,193.87c-83.39-48.16-163.7-48.28-246.64,7.24,18.19-42,62.87-67.31,115.43-69.43C442.32,129.47,485.23,152,518.63,193.87Z" transform="translate(-78 12)"/></svg>